<?xml version="1.0" encoding="iso-8859-1"?>
<!-- Uploaded to: SVG Repo, www.svgrepo.com, Generator: SVG Repo Mixer Tools -->
<svg height="800px" width="800px" version="1.1" id="Layer_1" xmlns="http://www.w3.org/2000/svg" xmlns:xlink="http://www.w3.org/1999/xlink" 
	 viewBox="0 0 512 512" xml:space="preserve">
<g>
	<path style="fill:#805333;" d="M494.345,432.552H17.655C7.91,432.552,0,424.642,0,414.897V97.103
		c0-9.746,7.91-17.655,17.655-17.655h476.69c9.746,0,17.655,7.91,17.655,17.655v317.793C512,424.642,504.09,432.552,494.345,432.552
		"/>
	<path style="fill:#F29C1F;" d="M450.207,158.897v-26.483c0-9.746-7.91-17.655-17.655-17.655H79.448
		c-9.746,0-17.655,7.91-17.655,17.655v26.483H450.207z"/>
	<path style="fill:#4482C3;" d="M450.207,238.345v-26.483c0-9.746-7.91-17.655-17.655-17.655H79.448
		c-9.746,0-17.655,7.91-17.655,17.655v26.483H450.207z"/>
	<g>
		<path style="fill:#5B3922;" d="M273.655,397.241h-35.31c-4.873,0-8.828-3.955-8.828-8.828s3.955-8.828,8.828-8.828h35.31
			c4.873,0,8.828,3.955,8.828,8.828S278.528,397.241,273.655,397.241"/>
		<polygon style="fill:#5B3922;" points="0,167.724 512,167.724 512,150.069 0,150.069 		"/>
		<polygon style="fill:#5B3922;" points="0,247.172 512,247.172 512,229.517 0,229.517 		"/>
	</g>
</g>
</svg>